<svg width="100" height="100" xmlns="http://www.w3.org/2000/svg">
 <!-- Created with Method Draw - http://github.com/duopixel/Method-Draw/ -->
 <g>
  <title>background</title>
  <rect fill="#fff" id="canvas_background" height="102" width="102" y="-1" x="-1"/>
  <g display="none" overflow="visible" y="0" x="0" height="100%" width="100%" id="canvasGrid">
   <rect fill="url(#gridpattern)" stroke-width="0" y="0" x="0" height="100%" width="100%"/>
  </g>
 </g>
 <g>
  <title>Layer 1</title>
  <path d="m0.522633,49.987087c0,-27.540545 22.201657,-49.848384 49.61111,-49.848384c27.409454,0 49.611115,22.307839 49.611115,49.848384c0,27.540539 -22.20166,49.848385 -49.611115,49.848385c-27.409452,0 -49.61111,-22.307846 -49.61111,-49.848385z"/>
  <path d="m0.522633,49.987087c0,-27.540545 22.201657,-49.848384 49.61111,-49.848384c27.409454,0 49.611115,22.307839 49.611115,49.848384c0,27.540539 -22.20166,49.848385 -49.611115,49.848385c-27.409452,0 -49.61111,-22.307846 -49.61111,-49.848385z"/>
  <rect id="svg_8" height="100.260446" width="99.993791" y="-0.143558" x="0.003098" stroke-opacity="null" stroke-width="0" stroke="null" fill="#000000"/>
  <path d="m0.522633,49.987087c0,-27.540545 22.201657,-49.848384 49.61111,-49.848384c27.409454,0 49.611115,22.307839 49.611115,49.848384c0,27.540539 -22.20166,49.848385 -49.611115,49.848385c-27.409452,0 -49.61111,-22.307846 -49.61111,-49.848385z"/>
  <path d="m0.522633,49.987087c0,-27.540545 22.201657,-49.848384 49.61111,-49.848384c27.409454,0 49.611115,22.307839 49.611115,49.848384c0,27.540539 -22.20166,49.848385 -49.611115,49.848385c-27.409452,0 -49.61111,-22.307846 -49.61111,-49.848385z"/>
  <path d="m0.522633,49.987087c0,-27.540545 22.201657,-49.848384 49.61111,-49.848384c27.409454,0 49.611115,22.307839 49.611115,49.848384c0,27.540539 -22.20166,49.848385 -49.611115,49.848385c-27.409452,0 -49.61111,-22.307846 -49.61111,-49.848385z"/>
  <path d="m0.522633,49.987087c0,-27.540545 22.201657,-49.848384 49.61111,-49.848384c27.409454,0 49.611115,22.307839 49.611115,49.848384c0,27.540539 -22.20166,49.848385 -49.611115,49.848385c-27.409452,0 -49.61111,-22.307846 -49.61111,-49.848385z"/>
  <path d="m0.522633,49.987087c0,-27.540545 22.201657,-49.848384 49.61111,-49.848384c27.409454,0 49.611115,22.307839 49.611115,49.848384c0,27.540539 -22.20166,49.848385 -49.611115,49.848385c-27.409452,0 -49.61111,-22.307846 -49.61111,-49.848385z"/>
  <path d="m0.522633,49.987087c0,-27.540545 22.201657,-49.848384 49.61111,-49.848384c27.409454,0 49.611115,22.307839 49.611115,49.848384c0,27.540539 -22.20166,49.848385 -49.611115,49.848385c-27.409452,0 -49.61111,-22.307846 -49.61111,-49.848385z"/>
  <path d="m0.522633,49.987087c0,-27.540545 22.201657,-49.848384 49.61111,-49.848384c27.409454,0 49.611115,22.307839 49.611115,49.848384c0,27.540539 -22.20166,49.848385 -49.611115,49.848385c-27.409452,0 -49.61111,-22.307846 -49.61111,-49.848385z"/>
  <path d="m0.522633,49.987087c0,-27.540545 22.201657,-49.848384 49.61111,-49.848384c27.409454,0 49.611115,22.307839 49.611115,49.848384c0,27.540539 -22.20166,49.848385 -49.611115,49.848385c-27.409452,0 -49.61111,-22.307846 -49.61111,-49.848385z"/>
  <path d="m0.522633,49.987087c0,-27.540545 22.201657,-49.848384 49.61111,-49.848384c27.409454,0 49.611115,22.307839 49.611115,49.848384c0,27.540539 -22.20166,49.848385 -49.611115,49.848385c-27.409452,0 -49.61111,-22.307846 -49.61111,-49.848385z"/>
  <path d="m0.522633,49.987087c0,-27.540545 22.201657,-49.848384 49.61111,-49.848384c27.409454,0 49.611115,22.307839 49.611115,49.848384c0,27.540539 -22.20166,49.848385 -49.611115,49.848385c-27.409452,0 -49.61111,-22.307846 -49.61111,-49.848385z"/>
  <path d="m0.522633,49.987087c0,-27.540545 22.201657,-49.848384 49.61111,-49.848384c27.409454,0 49.611115,22.307839 49.611115,49.848384c0,27.540539 -22.20166,49.848385 -49.611115,49.848385c-27.409452,0 -49.61111,-22.307846 -49.61111,-49.848385z"/>
  <path d="m0.522633,49.987087c0,-27.540545 22.201657,-49.848384 49.61111,-49.848384c27.409454,0 49.611115,22.307839 49.611115,49.848384c0,27.540539 -22.20166,49.848385 -49.611115,49.848385c-27.409452,0 -49.61111,-22.307846 -49.61111,-49.848385z"/>
  <path d="m0.522633,49.987087c0,-27.540545 22.201657,-49.848384 49.61111,-49.848384c27.409454,0 49.611115,22.307839 49.611115,49.848384c0,27.540539 -22.20166,49.848385 -49.611115,49.848385c-27.409452,0 -49.61111,-22.307846 -49.61111,-49.848385z"/>
  <path d="m0.522633,49.987087c0,-27.540545 22.201657,-49.848384 49.61111,-49.848384c27.409454,0 49.611115,22.307839 49.611115,49.848384c0,27.540539 -22.20166,49.848385 -49.611115,49.848385c-27.409452,0 -49.61111,-22.307846 -49.61111,-49.848385z"/>
  <path d="m0.522633,49.987087c0,-27.540545 22.201657,-49.848384 49.61111,-49.848384c27.409454,0 49.611115,22.307839 49.611115,49.848384c0,27.540539 -22.20166,49.848385 -49.611115,49.848385c-27.409452,0 -49.61111,-22.307846 -49.61111,-49.848385z"/>
  <path d="m0.522633,49.987087c0,-27.540545 22.201657,-49.848384 49.61111,-49.848384c27.409454,0 49.611115,22.307839 49.611115,49.848384c0,27.540539 -22.20166,49.848385 -49.611115,49.848385c-27.409452,0 -49.61111,-22.307846 -49.61111,-49.848385z"/>
  <path d="m0.522633,49.987087c0,-27.540545 22.201657,-49.848384 49.61111,-49.848384c27.409454,0 49.611115,22.307839 49.611115,49.848384c0,27.540539 -22.20166,49.848385 -49.611115,49.848385c-27.409452,0 -49.61111,-22.307846 -49.61111,-49.848385z"/>
  <path d="m0.522633,49.987087c0,-27.540545 22.201657,-49.848384 49.61111,-49.848384c27.409454,0 49.611115,22.307839 49.611115,49.848384c0,27.540539 -22.20166,49.848385 -49.611115,49.848385c-27.409452,0 -49.61111,-22.307846 -49.61111,-49.848385z"/>
  <path d="m0.522633,49.987087c0,-27.540545 22.201657,-49.848384 49.61111,-49.848384c27.409454,0 49.611115,22.307839 49.611115,49.848384c0,27.540539 -22.20166,49.848385 -49.611115,49.848385c-27.409452,0 -49.61111,-22.307846 -49.61111,-49.848385z"/>
  <path d="m0.522633,49.987087c0,-27.540545 22.201657,-49.848384 49.61111,-49.848384c27.409454,0 49.611115,22.307839 49.611115,49.848384c0,27.540539 -22.20166,49.848385 -49.611115,49.848385c-27.409452,0 -49.61111,-22.307846 -49.61111,-49.848385z"/>
  <path d="m0.522633,49.987087c0,-27.540545 22.201657,-49.848384 49.61111,-49.848384c27.409454,0 49.611115,22.307839 49.611115,49.848384c0,27.540539 -22.20166,49.848385 -49.611115,49.848385c-27.409452,0 -49.61111,-22.307846 -49.61111,-49.848385z"/>
  <ellipse transform="rotate(0.0604076, 50.1337, 49.9871)" ry="49.848383" rx="49.611111" id="svg_4" cy="49.987086" cx="50.133745" stroke-width="0" fill="#7f0000"/>
  <ellipse ry="11.199305" rx="5.599652" id="svg_5" cy="55.05302" cx="61.332628" stroke-width="0" fill="#7f0000"/>
  <text transform="matrix(7.36798, 0, 0, 4.96095, -227.789, -78.1668)" xml:space="preserve" text-anchor="start" font-family="Helvetica, Arial, sans-serif" font-size="24" id="svg_3" y="32.240558" x="33.344882" stroke-width="0" fill="#fe730e">r</text>
  <text transform="matrix(2.21632, 0, 0, 2.22746, -21.43, -43.6616)" xml:space="preserve" text-anchor="start" font-family="Helvetica, Arial, sans-serif" font-size="24" id="svg_7" y="53.143025" x="37.672296" stroke-width="0" fill="#fe730e">2</text>
  <text transform="matrix(0.601334, 0, 0, 0.604349, 127.283, 89.6987)" xml:space="preserve" text-anchor="start" font-family="Helvetica, Arial, sans-serif" font-size="24" id="svg_10" y="12.777362" x="-159.780511" stroke-width="0" fill="#fe730e">NetIM</text>
 </g>
</svg>